<svg width="114" height="18" viewBox="0 0 114 18" fill="none" xmlns="http://www.w3.org/2000/svg">
<path d="M3.13502 17.03C1.31059 18.0839 0 17.2057 0 15.6436C0 13.9808 0 8.99132 0 8.99132C0 8.99132 0 4.00188 0 2.339C0 0.776953 1.30978 -0.101241 3.13502 0.952591C5.97654 2.59351 14.5003 7.5179 14.5003 7.5179C15.6336 8.17248 15.6336 9.80934 14.5003 10.4639C14.5003 10.4647 5.97654 15.3891 3.13502 17.03Z" fill="#00C1FF"/>
<path d="M12.5169 17.0287C10.6924 18.0825 9.38184 17.2043 9.38184 15.6423C9.38184 13.9794 9.38184 8.98997 9.38184 8.98997C9.38184 8.98997 9.38184 4.00053 9.38184 2.33766C9.38184 0.77561 10.6916 -0.102584 12.5169 0.951249C15.2958 2.55639 23.6325 7.37263 23.6325 7.37263C24.8773 8.09145 24.8773 9.88849 23.6325 10.6073C23.6317 10.6073 15.2958 15.4236 12.5169 17.0287Z" fill="#BCEC30"/>
<mask id="mask0_3305_119" style="mask-type:alpha" maskUnits="userSpaceOnUse" x="9" y="0" width="16" height="18">
<path d="M12.5169 17.0287C10.6924 18.0825 9.38184 17.2043 9.38184 15.6423C9.38184 13.9794 9.38184 8.98997 9.38184 8.98997C9.38184 8.98997 9.38184 4.00053 9.38184 2.33766C9.38184 0.77561 10.6916 -0.102584 12.5169 0.951249C15.2958 2.55639 23.6325 7.37263 23.6325 7.37263C24.8773 8.09145 24.8773 9.88849 23.6325 10.6073C23.6317 10.6073 15.2958 15.4236 12.5169 17.0287Z" fill="#6FE4FF"/>
</mask>
<g mask="url(#mask0_3305_119)">
<g filter="url(#filter0_f_3305_119)">
<path d="M3.13551 17.03C1.31108 18.0839 0.000488281 17.2057 0.000488281 15.6436C0.000488281 13.9808 0.000488281 8.99132 0.000488281 8.99132C0.000488281 8.99132 0.000488281 4.00188 0.000488281 2.339C0.000488281 0.776953 1.31027 -0.101241 3.13551 0.952591C5.97703 2.59351 14.5008 7.5179 14.5008 7.5179C15.6341 8.17248 15.6341 9.80934 14.5008 10.4639C14.5008 10.4647 5.97703 15.3891 3.13551 17.03Z" fill="#99D100"/>
</g>
</g>
<path d="M30.5111 11.9599L30.8289 11.2362C31.0456 10.744 31.4357 10.6138 31.9269 10.9756C32.8659 11.6704 34.4117 12.177 36.4775 12.177C38.24 12.177 38.9913 11.7283 38.9913 11.1927C38.9913 10.5848 38.3701 10.4256 37.3443 10.2953L35.004 9.99139C32.1869 9.61506 30.7711 8.60186 30.7711 6.83601C30.7711 4.93989 32.3169 3.43457 35.8997 3.43457C37.8933 3.43457 39.1791 3.73853 40.017 4.05696C40.9416 4.41882 41.0716 4.72278 41.0716 5.47543V6.45968C41.0716 7.0676 40.8549 7.27024 40.2626 7.27024H39.598C38.9913 7.27024 38.789 7.05312 38.789 6.45968V6.14125C38.3989 6.01098 37.431 5.82281 36.3042 5.82281C34.325 5.82281 33.3715 6.18467 33.3715 6.79259C33.3715 7.24129 33.9494 7.50182 35.004 7.64657L37.301 7.95052C40.0748 8.29791 41.5483 9.13741 41.5483 11.1638C41.5483 13.2191 39.598 14.5363 36.1164 14.5363C33.5593 14.5363 31.5079 13.7257 30.6845 12.9731C30.3955 12.6836 30.3522 12.3217 30.5111 11.9599Z" fill="white"/>
<path d="M55.8783 14.3622H54.6936C54.1158 14.3622 53.928 14.2754 53.639 13.8412L51.4143 10.5555C51.0964 10.1068 50.8508 9.99103 50.1863 9.99103H47.9615V13.5517C47.9615 14.1596 47.7448 14.3622 47.1525 14.3622H46.3002C45.6934 14.3622 45.4911 14.1451 45.4911 13.5517V2.86972H44.6966C44.0898 2.86972 43.8876 2.65261 43.8876 2.05917V1.33546C43.8876 0.727541 44.1043 0.524902 44.6966 0.524902H47.167C47.7737 0.524902 47.976 0.742015 47.976 1.33546V7.58832H49.9696C50.6341 7.58832 50.8653 7.487 51.1976 7.02382L53.0612 4.14345C53.3646 3.69475 53.5524 3.60791 54.1302 3.60791H55.3148C55.9649 3.60791 56.0805 4.12898 55.7194 4.66453L53.639 7.8199C53.4223 8.12386 53.1623 8.44229 52.9167 8.70283C53.1767 8.91994 53.5379 9.2818 53.6824 9.49891L56.2828 13.3346C56.6439 13.8412 56.5139 14.3622 55.8783 14.3622Z" fill="white"/>
<path d="M60.1056 16.3305V15.6213C60.1056 15.0134 60.3223 14.8108 60.9146 14.8108H61.9404C62.5616 14.8108 62.8649 14.6805 63.0961 14.1884L63.2261 13.9134L58.3143 4.60644C58.0109 4.04194 58.2565 3.62219 58.8921 3.62219H60.0045C60.5824 3.62219 60.8424 3.72351 61.0591 4.14326L63.1105 8.36973C63.5873 9.33951 64.1218 10.454 64.5407 11.4238C64.9741 10.483 65.4653 9.3974 65.9276 8.45658L68.0224 4.14326C68.2102 3.73799 68.4991 3.62219 69.077 3.62219H70.1894C70.8395 3.62219 71.0706 4.05642 70.7672 4.60644L65.1764 15.245C64.5263 16.4753 63.7895 17.1556 62.1137 17.1556H60.8857C60.3079 17.1556 60.1056 16.9385 60.1056 16.3305Z" fill="white"/>
<path d="M85.874 8.99267C85.874 12.4086 83.3458 14.5363 79.9364 14.5363C78.4629 14.5363 77.336 14.1744 76.5415 13.7257V16.6495C76.5415 17.2574 76.3248 17.4601 75.7325 17.4601H74.8801C74.2734 17.4601 74.0711 17.243 74.0711 16.6495V5.96756H73.2765C72.6698 5.96756 72.4675 5.75044 72.4675 5.157V4.43329C72.4675 3.82537 72.6842 3.62273 73.2765 3.62273H75.3569C75.9636 3.62273 76.1659 3.83985 76.1659 4.43329V4.49119C76.9749 3.95564 78.2028 3.43457 79.9364 3.43457C83.3458 3.44904 85.874 5.57675 85.874 8.99267ZM83.3025 8.99267C83.3025 6.99523 81.6989 5.88071 79.7053 5.88071C78.2751 5.88071 77.1049 6.48863 76.5559 6.98075V11.0191C77.1193 11.5112 78.2751 12.1191 79.7053 12.1191C81.6989 12.1046 83.3025 10.9901 83.3025 8.99267Z" fill="white"/>
<path d="M99.3331 8.15334C99.3331 8.76125 99.1164 8.96389 98.5241 8.96389H97.6718C97.065 8.96389 96.8627 8.7902 96.8627 8.15334C96.8627 6.56117 96.256 5.85194 94.8113 5.85194C93.4389 5.85194 92.2976 6.70592 91.662 7.74806V13.5522C91.662 14.1601 91.4453 14.3628 90.8529 14.3628H90.0006C89.3938 14.3628 89.1916 14.1457 89.1916 13.5522V5.96773H88.397C87.7903 5.96773 87.588 5.75062 87.588 5.15718V4.43346C87.588 3.82555 87.8047 3.62291 88.397 3.62291H90.4773C91.0841 3.62291 91.2863 3.84002 91.2863 4.43346V5.12823C92.052 4.27425 93.2222 3.44922 95.2158 3.44922C98.134 3.44922 99.3331 5.18612 99.3331 8.15334Z" fill="white"/>
<path d="M100.866 8.99284C100.866 5.80852 103.553 3.44922 107.122 3.44922C110.661 3.44922 113.334 5.80852 113.334 8.99284C113.334 12.1916 110.647 14.5509 107.122 14.5509C103.553 14.5509 100.866 12.1916 100.866 8.99284ZM110.878 8.99284C110.878 7.14014 109.245 5.79404 107.122 5.79404C104.955 5.79404 103.322 7.15462 103.322 8.99284C103.322 10.86 104.955 12.2206 107.122 12.2206C109.26 12.2206 110.878 10.86 110.878 8.99284Z" fill="white"/>
<defs>
<filter id="filter0_f_3305_119" x="-8.92896" y="-8.43739" width="33.2092" height="34.8574" filterUnits="userSpaceOnUse" color-interpolation-filters="sRGB">
<feFlood flood-opacity="0" result="BackgroundImageFix"/>
<feBlend mode="normal" in="SourceGraphic" in2="BackgroundImageFix" result="shape"/>
<feGaussianBlur stdDeviation="4.46473" result="effect1_foregroundBlur_3305_119"/>
</filter>
</defs>
</svg>
