<svg width="140" height="22" viewBox="0 0 140 22" fill="none" xmlns="http://www.w3.org/2000/svg">
<path d="M3.87291 21.4217C1.61921 22.7235 0.000244141 21.6387 0.000244141 19.7091C0.000244141 17.6549 0.000244141 11.4915 0.000244141 11.4915C0.000244141 11.4915 0.000244141 5.32808 0.000244141 3.27394C0.000244141 1.34435 1.61821 0.259524 3.87291 1.56132C7.38302 3.58834 17.9123 9.67141 17.9123 9.67141C19.3124 10.48 19.3124 12.502 17.9123 13.3106C17.9123 13.3116 7.38302 19.3947 3.87291 21.4217Z" fill="#AD61FF"/>
<path d="M15.462 21.42C13.2083 22.7218 11.5894 21.6369 11.5894 19.7074C11.5894 17.6532 11.5894 11.4898 11.5894 11.4898C11.5894 11.4898 11.5894 5.32637 11.5894 3.27223C11.5894 1.34264 13.2073 0.257815 15.462 1.55961C18.8948 3.54243 29.1931 9.49191 29.1931 9.49191C30.7308 10.3799 30.7308 12.5997 29.1931 13.4877C29.1921 13.4877 18.8948 19.4372 15.462 21.42Z" fill="#D9B6FF"/>
<mask id="mask0_3304_46" style="mask-type:alpha" maskUnits="userSpaceOnUse" x="11" y="0" width="20" height="22">
<path d="M15.462 21.42C13.2083 22.7218 11.5894 21.6369 11.5894 19.7074C11.5894 17.6532 11.5894 11.4898 11.5894 11.4898C11.5894 11.4898 11.5894 5.32637 11.5894 3.27223C11.5894 1.34264 13.2073 0.257815 15.462 1.55961C18.8948 3.54243 29.1931 9.49191 29.1931 9.49191C30.7308 10.3799 30.7308 12.5997 29.1931 13.4877C29.1921 13.4877 18.8948 19.4372 15.462 21.42Z" fill="#AD61FF"/>
</mask>
<g mask="url(#mask0_3304_46)">
<g filter="url(#filter0_f_3304_46)">
<path d="M3.87328 21.4217C1.61958 22.7235 0.000610352 21.6387 0.000610352 19.7091C0.000610352 17.6549 0.000610352 11.4915 0.000610352 11.4915C0.000610352 11.4915 0.000610352 5.32808 0.000610352 3.27394C0.000610352 1.34435 1.61857 0.259524 3.87328 1.56132C7.38339 3.58834 17.9127 9.67141 17.9127 9.67141C19.3127 10.48 19.3127 12.502 17.9127 13.3106C17.9127 13.3116 7.38339 19.3947 3.87328 21.4217Z" fill="#D9B6FF"/>
</g>
</g>
<path d="M37.6903 15.1587L38.0829 14.2647C38.3506 13.6568 38.8324 13.4959 39.4391 13.9429C40.5991 14.8011 42.5086 15.4269 45.0606 15.4269C47.2378 15.4269 48.1658 14.8726 48.1658 14.2111C48.1658 13.4601 47.3984 13.2634 46.1313 13.1025L43.2403 12.727C39.7604 12.2622 38.0115 11.0106 38.0115 8.82922C38.0115 6.48695 39.921 4.62744 44.3468 4.62744C46.8095 4.62744 48.3978 5.00292 49.4328 5.39628C50.5749 5.84327 50.7356 6.21875 50.7356 7.14851V8.36434C50.7356 9.1153 50.4679 9.36562 49.7362 9.36562H48.9153C48.1658 9.36562 47.9159 9.09742 47.9159 8.36434V7.97098C47.4341 7.81006 46.2384 7.57763 44.8464 7.57763C42.4016 7.57763 41.2237 8.02462 41.2237 8.77558C41.2237 9.32986 41.9376 9.6517 43.2403 9.83049L46.0778 10.206C49.5042 10.6351 51.3245 11.6721 51.3245 14.1753C51.3245 16.7143 48.9153 18.3413 44.6144 18.3413C41.4557 18.3413 38.9216 17.3401 37.9044 16.4103C37.5475 16.0527 37.494 15.6057 37.6903 15.1587Z" fill="black"/>
<path d="M69.0263 18.1261H67.5629C66.8491 18.1261 66.6171 18.0189 66.2602 17.4825L63.5119 13.4237C63.1193 12.8695 62.8159 12.7264 61.995 12.7264H59.2468V17.1249C59.2468 17.8758 58.9791 18.1261 58.2474 18.1261H57.1945C56.445 18.1261 56.1951 17.8579 56.1951 17.1249V3.9295H55.2136C54.4641 3.9295 54.2142 3.6613 54.2142 2.92823V2.03423C54.2142 1.28328 54.4819 1.03296 55.2136 1.03296H58.2652C59.0148 1.03296 59.2646 1.30116 59.2646 2.03423V9.75835H61.7273C62.5482 9.75835 62.8338 9.63319 63.2442 9.06104L65.5463 5.50293C65.9211 4.94866 66.1531 4.84138 66.8669 4.84138H68.3303C69.1333 4.84138 69.2761 5.48505 68.83 6.14661L66.2602 10.0444C65.9925 10.4199 65.6713 10.8133 65.3679 11.1351C65.6891 11.4033 66.1352 11.8503 66.3137 12.1185L69.5259 16.8567C69.9721 17.4825 69.8115 18.1261 69.0263 18.1261Z" fill="black"/>
<path d="M74.248 20.5577V19.6816C74.248 18.9306 74.5157 18.6803 75.2474 18.6803H76.5144C77.2818 18.6803 77.6565 18.5194 77.9421 17.9115L78.1027 17.5717L72.0351 6.07496C71.6603 5.37765 71.9637 4.85913 72.7489 4.85913H74.1231C74.8369 4.85913 75.1581 4.98429 75.4258 5.50281L77.9599 10.7237C78.5488 11.9217 79.2091 13.2984 79.7267 14.4964C80.262 13.3342 80.8688 11.9932 81.4399 10.831L84.0275 5.50281C84.2595 5.00217 84.6164 4.85913 85.3302 4.85913H86.7044C87.5074 4.85913 87.793 5.39553 87.4182 6.07496L80.5119 19.2167C79.7088 20.7365 78.7987 21.5768 76.7286 21.5768H75.2117C74.4978 21.5768 74.248 21.3086 74.248 20.5577Z" fill="black"/>
<path d="M106.08 11.4933C106.08 15.713 102.957 18.3413 98.7456 18.3413C96.9253 18.3413 95.5333 17.8943 94.5518 17.3401V20.9518C94.5518 21.7027 94.2841 21.9531 93.5524 21.9531H92.4995C91.75 21.9531 91.5002 21.6849 91.5002 20.9518V7.75642H90.5187C89.7691 7.75642 89.5193 7.48823 89.5193 6.75515V5.86115C89.5193 5.1102 89.787 4.85988 90.5187 4.85988H93.0884C93.838 4.85988 94.0878 5.12808 94.0878 5.86115V5.93267C95.0872 5.27112 96.6041 4.62744 98.7456 4.62744C102.957 4.64532 106.08 7.27367 106.08 11.4933ZM102.904 11.4933C102.904 9.0259 100.923 7.64915 98.46 7.64915C96.6933 7.64915 95.2478 8.4001 94.5696 9.00802V13.9965C95.2656 14.6044 96.6933 15.3554 98.46 15.3554C100.923 15.3375 102.904 13.9608 102.904 11.4933Z" fill="black"/>
<path d="M122.705 10.4562C122.705 11.2072 122.438 11.4575 121.706 11.4575H120.653C119.904 11.4575 119.654 11.2429 119.654 10.4562C119.654 8.48944 118.904 7.61333 117.12 7.61333C115.424 7.61333 114.015 8.66824 113.229 9.9556V17.1254C113.229 17.8764 112.962 18.1267 112.23 18.1267H111.177C110.428 18.1267 110.178 17.8585 110.178 17.1254V7.75637H109.196C108.447 7.75637 108.197 7.48817 108.197 6.75509V5.8611C108.197 5.11014 108.464 4.85982 109.196 4.85982H111.766C112.515 4.85982 112.765 5.12802 112.765 5.8611V6.71933C113.711 5.66442 115.157 4.64526 117.619 4.64526C121.224 4.64526 122.705 6.79085 122.705 10.4562Z" fill="black"/>
<path d="M124.6 11.4933C124.6 7.55969 127.919 4.64526 132.327 4.64526C136.699 4.64526 140.001 7.55969 140.001 11.4933C140.001 15.4447 136.681 18.3592 132.327 18.3592C127.919 18.3592 124.6 15.4447 124.6 11.4933ZM136.967 11.4933C136.967 9.20464 134.95 7.54181 132.327 7.54181C129.65 7.54181 127.634 9.22252 127.634 11.4933C127.634 13.7998 129.65 15.4805 132.327 15.4805C134.968 15.4805 136.967 13.7998 136.967 11.4933Z" fill="black"/>
<defs>
<filter id="filter0_f_3304_46" x="-8.92884" y="-7.93702" width="36.8211" height="38.857" filterUnits="userSpaceOnUse" color-interpolation-filters="sRGB">
<feFlood flood-opacity="0" result="BackgroundImageFix"/>
<feBlend mode="normal" in="SourceGraphic" in2="BackgroundImageFix" result="shape"/>
<feGaussianBlur stdDeviation="4.46473" result="effect1_foregroundBlur_3304_46"/>
</filter>
</defs>
</svg>
