<svg>

  <symbol id="burger" viewBox="0 0 20 12" xmlns="http://www.w3.org/2000/svg">
    <path d="M20 1.43188H0" />
    <path d="M20 6.43188H0" />
    <path d="M20 11.4319H0" />
  </symbol>

  <symbol id="like"  viewBox="0 0 16 14"  xmlns="http://www.w3.org/2000/svg">
    <path d="M8.34372 2.25572H8.36529C9.29718 1.44175 11.7563 0.165765 13.9565 1.76734C17.3111 4.20921 14.2458 9.5 8.36529 13H8.34372M8.34378 2.25572H8.32221C7.39032 1.44175 4.93121 0.165765 2.73102 1.76734C-0.623552 4.20921 2.44172 9.5 8.32221 13H8.34378"/>
  </symbol>

  <symbol id="dislike"  viewBox="0 0 16 15"  xmlns="http://www.w3.org/2000/svg">
      <path d="M8.34372 3.25572H8.36529C9.29718 2.44175 11.7563 1.16576 13.9565 2.76734C17.3111 5.20921 14.2458 10.5 8.36529 14H8.34372M8.34378 3.25572H8.32221C7.39032 2.44175 4.93121 1.16576 2.73102 2.76734C-0.623552 5.20921 2.44172 10.5 8.32221 14H8.34378" />
      <path d="M1 1L15 13.5" />
  </symbol>

  <symbol id="search"  viewBox="0 0 17 18"  xmlns="http://www.w3.org/2000/svg">
    <path d="M11.9276 12.7748L15.37 17.0644" stroke="white" stroke-linecap="round"/>
    <circle cx="8.48533" cy="8.48526" r="5.5" transform="rotate(-38.7469 8.48533 8.48526)" stroke="white"/>
  </symbol>

  <symbol id="time"  viewBox="0 0 12 12"  xmlns="http://www.w3.org/2000/svg">
    <circle cx="6" cy="6" r="5.5" stroke="#696969"/>
    <path d="M4 6H6.5V2.5" stroke="#696969"/>
  </symbol>

  <symbol id="prev" viewBox="0 0 16 14"  xmlns="http://www.w3.org/2000/svg">
    <path d="M1 2V12.5" stroke="white"/>
    <path d="M3 7L12.75 0.937823L12.75 13.0622L3 7Z" fill="#D9D9D9"/>
  </symbol>

  <symbol id="play" viewBox="0 0 15 20"  xmlns="http://www.w3.org/2000/svg">
        <path d="M15 10L-1.01012e-06 0.47372L-1.84293e-06 19.5263L15 10Z" fill="#D9D9D9"/>
  </symbol>

  <symbol id="pause" viewBox="0 0 512 512"  xmlns="http://www.w3.org/2000/svg">
        <path d="M224,432H144V80h80Z" fill="#D9D9D9"/>
        <path d="M368,432H288V80h80Z" fill="#D9D9D9"/>
  </symbol>

  <symbol id="next" viewBox="0 0 16 14"  xmlns="http://www.w3.org/2000/svg">
      <path d="M15 2V12.5" stroke="white"/>
      <path d="M13 7L3.25 0.937823L3.25 13.0622L13 7Z" fill="#D9D9D9"/>
  </symbol>

  <symbol id="repeat" viewBox="0 0 20 18"  xmlns="http://www.w3.org/2000/svg">
      <path d="M10 3L5 0.113249V5.88675L10 3ZM7 14.5C3.96243 14.5 1.5 12.0376 1.5 9H0.5C0.5 12.5899 3.41015 15.5 7 15.5V14.5ZM1.5 9C1.5 5.96243 3.96243 3.5 7 3.5V2.5C3.41015 2.5 0.5 5.41015 0.5 9H1.5Z" fill="#696969"/>
      <path d="M10 15L15 17.8868V12.1132L10 15ZM13 3.5C16.0376 3.5 18.5 5.96243 18.5 9H19.5C19.5 5.41015 16.5899 2.5 13 2.5V3.5ZM18.5 9C18.5 12.0376 16.0376 14.5 13 14.5V15.5C16.5899 15.5 19.5 12.5899 19.5 9H18.5Z" fill="#696969"/>
  </symbol>

  <symbol id="shuffle" viewBox="0 0 20 18" xmlns="http://www.w3.org/2000/svg">
      <path d="M19.6908 14.9229L14.6908 12.0361V17.8096L19.6908 14.9229ZM10.354 12.0061L9.89943 12.2145L10.354 12.0061ZM7.52763 5.83958L7.0731 6.04791L7.52763 5.83958ZM0.690796 3.42285H2.9823V2.42285H0.690796V3.42285ZM7.0731 6.04791L9.89943 12.2145L10.8085 11.7978L7.98216 5.63125L7.0731 6.04791ZM14.8993 15.4229H15.1908V14.4229H14.8993V15.4229ZM9.89943 12.2145C10.7955 14.1694 12.7487 15.4229 14.8993 15.4229V14.4229C13.1397 14.4229 11.5416 13.3973 10.8085 11.7978L9.89943 12.2145ZM2.9823 3.42285C4.74184 3.42285 6.33998 4.44837 7.0731 6.04791L7.98216 5.63125C7.08613 3.67626 5.13285 2.42285 2.9823 2.42285V3.42285Z" fill="#696969"/>
      <path d="M19.6908 2.92285L14.6908 5.8096V0.0361004L19.6908 2.92285ZM10.354 5.83958L9.89943 5.63125L10.354 5.83958ZM7.52763 12.0061L7.0731 11.7978L7.52763 12.0061ZM0.690796 14.4229H2.9823V15.4229H0.690796V14.4229ZM7.0731 11.7978L9.89943 5.63125L10.8085 6.0479L7.98216 12.2145L7.0731 11.7978ZM14.8993 2.42285H15.1908V3.42285H14.8993V2.42285ZM9.89943 5.63125C10.7955 3.67626 12.7487 2.42285 14.8993 2.42285V3.42285C13.1397 3.42285 11.5416 4.44837 10.8085 6.0479L9.89943 5.63125ZM2.9823 14.4229C4.74184 14.4229 6.33998 13.3973 7.0731 11.7978L7.98216 12.2145C7.08613 14.1694 5.13285 15.4229 2.9823 15.4229V14.4229Z" fill="#696969"/>
  </symbol>

  <symbol id="volume" fill="none" viewBox="0 0 14 18" xmlns="http://www.w3.org/2000/svg">
      <mask id="path-1-inside-1_2985_507" fill="white">
      <path fill-rule="evenodd" clip-rule="evenodd" d="M8 0L3 5H0V13H3L8 18V0Z"/>
      </mask>
      <path d="M3 5V6H3.41421L3.70711 5.70711L3 5ZM8 0H9V-2.41421L7.29289 -0.707107L8 0ZM0 5V4H-1V5H0ZM0 13H-1V14H0V13ZM3 13L3.70711 12.2929L3.41421 12H3V13ZM8 18L7.29289 18.7071L9 20.4142V18H8ZM3.70711 5.70711L8.70711 0.707107L7.29289 -0.707107L2.29289 4.29289L3.70711 5.70711ZM0 6H3V4H0V6ZM1 13V5H-1V13H1ZM3 12H0V14H3V12ZM8.70711 17.2929L3.70711 12.2929L2.29289 13.7071L7.29289 18.7071L8.70711 17.2929ZM7 0V18H9V0H7Z" fill="white" mask="url(#path-1-inside-1_2985_507)"/>
      <path d="M11 13C12.1046 13 13 11.2091 13 9C13 6.79086 12.1046 5 11 5" stroke="white"/>
  </symbol>

  <symbol id="mute" viewBox="0 0 8 18" fill="none" xmlns="http://www.w3.org/2000/svg">
     <mask id="path-1-inside-1_1_752" fill="white">
      <path fill-rule="evenodd" clip-rule="evenodd" d="M8 0L3 5H0V13H3L8 18V0Z"/>
    </mask>
    <path d="M3 5V6H3.41421L3.70711 5.70711L3 5ZM8 0H9V-2.41421L7.29289 -0.707107L8 0ZM0 5V4H-1V5H0ZM0 13H-1V14H0V13ZM3 13L3.70711 12.2929L3.41421 12H3V13ZM8 18L7.29289 18.7071L9 20.4142V18H8ZM3.70711 5.70711L8.70711 0.707107L7.29289 -0.707107L2.29289 4.29289L3.70711 5.70711ZM0 6H3V4H0V6ZM1 13V5H-1V13H1ZM3 12H0V14H3V12ZM8.70711 17.2929L3.70711 12.2929L2.29289 13.7071L7.29289 18.7071L8.70711 17.2929ZM7 0V18H9V0H7Z" fill="#B1B1B1" mask="url(#path-1-inside-1_1_752)"/>
  </symbol>

  <symbol id="avatar" viewBox="0 0 37 37" fill="none" xmlns="http://www.w3.org/2000/svg">
      <path d="M37 18.5C37 8.30445 28.6956 0 18.5 0C8.30445 0 0 8.30445 0 18.5C0 24.6256 3.00111 30.0933 7.64667 33.4644C7.72889 33.5467 7.81111 33.5878 7.89333 33.6289C10.8944 35.7667 14.5533 37 18.5 37C22.4467 37 26.1056 35.7667 29.1067 33.6289C29.1889 33.5878 29.2711 33.5056 29.3533 33.4644C33.9989 30.0933 37 24.6256 37 18.5ZM9.04445 32.4367V31.6556C9.04445 26.4344 13.2789 22.2 18.5 22.2C23.7211 22.2 27.9556 26.4344 27.9556 31.6556V32.4367C25.2422 34.2867 21.9944 35.3556 18.5 35.3556C15.0056 35.3556 11.7578 34.2867 9.04445 32.4367ZM13.5667 15.6222C13.5667 12.9089 15.7867 10.6889 18.5 10.6889C21.2133 10.6889 23.4333 12.9089 23.4333 15.6222C23.4333 18.3356 21.2133 20.5556 18.5 20.5556C15.7867 20.5556 13.5667 18.3356 13.5667 15.6222ZM29.6 31.1622C29.3944 26.4756 26.3111 22.57 22.0767 21.1311C23.8856 19.98 25.0778 17.9244 25.0778 15.6222C25.0778 12.0044 22.1178 9.04445 18.5 9.04445C14.8822 9.04445 11.9222 12.0044 11.9222 15.6222C11.9222 17.9244 13.1144 19.98 14.9233 21.1311C10.6889 22.57 7.60556 26.5167 7.4 31.1622C3.86444 28.0789 1.64444 23.5567 1.64444 18.5C1.64444 9.20889 9.20889 1.64444 18.5 1.64444C27.7911 1.64444 35.3556 9.20889 35.3556 18.5C35.3556 23.5567 33.1356 28.0789 29.6 31.1622Z" fill="#fefefe"/>
  </symbol>

</svg>
