<svg width="26" height="17" viewBox="0 0 26 17" fill="none" xmlns="http://www.w3.org/2000/svg">
<path d="M3.87867 16.5394C2.05425 17.5933 0.743652 16.7151 0.743652 15.153C0.743652 13.4902 0.743652 8.50072 0.743652 8.50072C0.743652 8.50072 0.743652 3.51127 0.743652 1.8484C0.743652 0.286352 2.05343 -0.591842 3.87867 0.461991C6.72019 2.10291 15.2439 7.0273 15.2439 7.0273C16.3773 7.68188 16.3773 9.31874 15.2439 9.97332C15.2439 9.97413 6.72019 14.8985 3.87867 16.5394Z" fill="#AD61FF"/>
<path d="M13.2604 16.538C11.436 17.5918 10.1254 16.7136 10.1254 15.1516C10.1254 13.4887 10.1254 8.49925 10.1254 8.49925C10.1254 8.49925 10.1254 3.50981 10.1254 1.84693C10.1254 0.284888 11.4352 -0.593306 13.2604 0.460526C16.0394 2.06567 24.3761 6.88191 24.3761 6.88191C25.6208 7.60073 25.6208 9.39777 24.3761 10.1166C24.3753 10.1166 16.0394 14.9328 13.2604 16.538Z" fill="#D9B6FF"/>
<mask id="mask0_3310_1779" style="mask-type:alpha" maskUnits="userSpaceOnUse" x="10" y="0" width="16" height="17">
<path d="M13.2604 16.538C11.436 17.5918 10.1254 16.7136 10.1254 15.1516C10.1254 13.4887 10.1254 8.49925 10.1254 8.49925C10.1254 8.49925 10.1254 3.50981 10.1254 1.84693C10.1254 0.284888 11.4352 -0.593306 13.2604 0.460526C16.0394 2.06567 24.3761 6.88191 24.3761 6.88191C25.6209 7.60073 25.6209 9.39777 24.3761 10.1166C24.3753 10.1166 16.0394 14.9328 13.2604 16.538Z" fill="#AD61FF"/>
</mask>
<g mask="url(#mask0_3310_1779)">
<g filter="url(#filter0_f_3310_1779)">
<path d="M3.87916 16.5394C2.05473 17.5933 0.744141 16.7151 0.744141 15.153C0.744141 13.4902 0.744141 8.50072 0.744141 8.50072C0.744141 8.50072 0.744141 3.51127 0.744141 1.8484C0.744141 0.286352 2.05392 -0.591842 3.87916 0.461991C6.72068 2.10291 15.2444 7.0273 15.2444 7.0273C16.3778 7.68188 16.3778 9.31874 15.2444 9.97332C15.2444 9.97413 6.72068 14.8985 3.87916 16.5394Z" fill="#D9B6FF"/>
</g>
</g>
<defs>
<filter id="filter0_f_3310_1779" x="-8.18531" y="-8.92799" width="33.2092" height="34.8574" filterUnits="userSpaceOnUse" color-interpolation-filters="sRGB">
<feFlood flood-opacity="0" result="BackgroundImageFix"/>
<feBlend mode="normal" in="SourceGraphic" in2="BackgroundImageFix" result="shape"/>
<feGaussianBlur stdDeviation="4.46473" result="effect1_foregroundBlur_3310_1779"/>
</filter>
</defs>
</svg>
